<?xml version="1.0" encoding="UTF-8" standalone="no"?>
<svg width="215.392mm" height="194.31mm"
 viewBox="0 0 2544 2295"
 xmlns="http://www.w3.org/2000/svg" xmlns:xlink="http://www.w3.org/1999/xlink"  version="1.2" baseProfile="tiny">


<g fill="none" stroke="black" stroke-width="2" >

<path d="M1754.73,1915.13 L1974.05,1915.13"/>
<path d="M1974.05,1915.13 L1974.05,2134.46"/>
<path d="M1974.05,2134.46 L1754.73,2134.46"/>
<path d="M1754.73,2134.46 L1754.73,1915.13"/>
<path d="M658.114,1915.13 L877.437,1915.13"/>
<path d="M877.437,1915.13 L877.437,1695.81"/>
<path d="M877.437,1695.81 L877.437,1476.49"/>
<path d="M877.437,1476.49 L1096.76,1476.49"/>
<path d="M1096.76,1476.49 L1096.76,1695.81"/>
<path d="M1096.76,1695.81 L1096.76,1915.13"/>
<path d="M1096.76,1915.13 L1316.08,1915.13"/>
<path d="M1316.08,1915.13 L1316.08,2134.46"/>
<path d="M1316.08,2134.46 L1096.76,2134.46 L877.437,2134.46 L658.114,2134.46"/>
<path d="M658.114,2134.46 L658.114,1915.13"/>
<path d="M1316.08,1695.81 L1535.41,1695.81"/>
<path d="M1535.41,1695.81 L1535.41,1915.13"/>
<path d="M1535.41,1915.13 L1754.73,1915.13"/>
<path d="M1754.73,2134.46 L1535.41,2134.46 L1316.08,2134.46"/>
<path d="M1096.76,1476.49 L1316.08,1476.49"/>
<path d="M1316.08,1476.49 L1316.08,1695.81"/>
<path d="M438.79,1476.49 L658.114,1476.49"/>
<path d="M658.114,1476.49 L658.114,1695.81"/>
<path d="M658.114,1695.81 L877.437,1695.81"/>
<path d="M658.114,2134.46 L438.79,2134.46"/>
<path d="M438.79,2134.46 L438.79,1915.13"/>
<path d="M438.79,1915.13 L219.467,1915.13"/>
<path d="M219.467,1915.13 L219.467,1695.81"/>
<path d="M219.467,1695.81 L438.79,1695.81"/>
<path d="M438.79,1695.81 L438.79,1476.49"/>
<path d="M438.79,2134.46 L219.467,2134.46 L0.143635,2134.46 L0.143635,1915.13 L0.143635,1695.81 L0.143635,1476.49"/>
<path d="M0.143635,1476.49 L219.467,1476.49"/>
<path d="M219.467,1476.49 L438.79,1476.49"/>
<path d="M1974.05,1915.13 L1974.05,1695.81"/>
<path d="M1974.05,1695.81 L1974.05,1476.49"/>
<path d="M1535.41,1695.81 L1754.73,1695.81"/>
<path d="M1754.73,1695.81 L1754.73,1915.13"/>
<path d="M1754.73,1476.49 L1754.73,1695.81"/>
<path d="M438.79,160.545 L438.79,379.868"/>
<path d="M438.79,379.868 L219.467,379.868"/>
<path d="M1754.73,379.868 L1974.05,379.868"/>
<path d="M1316.08,379.868 L1535.41,379.868"/>
<path d="M1535.41,379.868 L1754.73,379.868"/>
<path d="M877.437,379.868 L1096.76,379.868"/>
<path d="M658.114,379.868 L877.437,379.868"/>
<path d="M438.79,160.545 L658.114,160.545"/>
<path d="M658.114,160.545 L658.114,379.868"/>
<path d="M1535.41,379.868 L1535.41,160.545"/>
<path d="M1535.41,160.545 L1754.73,160.545 L1974.05,160.545 L2193.38,160.545 L2193.38,379.868"/>
<path d="M658.114,160.545 L877.437,160.545 L1096.76,160.545 L1316.08,160.545 L1535.41,160.545"/>
<path d="M219.467,599.192 L438.79,599.192"/>
<path d="M1316.08,599.192 L1535.41,599.192"/>
<path d="M1754.73,599.192 L1974.05,599.192"/>
<path d="M1535.41,599.192 L1754.73,599.192"/>
<path d="M658.114,599.192 L877.437,599.192"/>
<path d="M1096.76,599.192 L1316.08,599.192"/>
<path d="M219.467,379.868 L219.467,599.192"/>
<path d="M1974.05,379.868 L1974.05,599.192"/>
<path d="M1316.08,599.192 L1316.08,379.868"/>
<path d="M1096.76,379.868 L1096.76,599.192"/>
<path d="M658.114,599.192 L658.114,379.868"/>
<path d="M1974.05,1037.84 L2193.38,1037.84"/>
<path d="M1974.05,1257.16 L1974.05,1037.84"/>
<path d="M1316.08,1257.16 L1535.41,1257.16"/>
<path d="M1535.41,1257.16 L1754.73,1257.16"/>
<path d="M1754.73,1257.16 L1754.73,1037.84"/>
<path d="M1754.73,1037.84 L1974.05,1037.84"/>
<path d="M1096.76,1037.84 L1316.08,1037.84"/>
<path d="M1316.08,1037.84 L1316.08,1257.16"/>
<path d="M658.114,1257.16 L877.437,1257.16"/>
<path d="M877.437,1257.16 L1096.76,1257.16"/>
<path d="M1096.76,1257.16 L1096.76,1037.84"/>
<path d="M219.467,1257.16 L438.79,1257.16"/>
<path d="M438.79,1257.16 L438.79,1037.84"/>
<path d="M438.79,1037.84 L658.114,1037.84"/>
<path d="M658.114,1037.84 L877.437,1037.84"/>
<path d="M877.437,1037.84 L877.437,1257.16"/>
<path d="M1974.05,818.515 L2193.38,818.515"/>
<path d="M2193.38,818.515 L2193.38,1037.84"/>
<path d="M1535.41,1257.16 L1535.41,1037.84"/>
<path d="M1535.41,1037.84 L1535.41,818.515"/>
<path d="M1535.41,818.515 L1754.73,818.515"/>
<path d="M1754.73,818.515 L1974.05,818.515"/>
<path d="M2193.38,1037.84 L2193.38,1257.16 L2193.38,1476.49 L2193.38,1695.81 L2193.38,1915.13 L2193.38,2134.46 L1974.05,2134.46"/>
<path d="M1974.05,1476.49 L1974.05,1257.16"/>
<path d="M1754.73,1257.16 L1754.73,1476.49"/>
<path d="M1316.08,1476.49 L1316.08,1257.16"/>
<path d="M658.114,1476.49 L658.114,1257.16"/>
<path d="M0.143635,1476.49 L0.143635,1257.16"/>
<path d="M0.143635,1257.16 L219.467,1257.16"/>
<path d="M658.114,1037.84 L658.114,818.515"/>
<path d="M438.79,599.192 L438.79,818.515"/>
<path d="M438.79,818.515 L658.114,818.515"/>
<path d="M0.143635,1257.16 L0.143635,1037.84"/>
<path d="M0.143635,1037.84 L219.467,1037.84"/>
<path d="M219.467,1037.84 L219.467,818.515"/>
<path d="M219.467,818.515 L219.467,599.192"/>
<path d="M1535.41,599.192 L1535.41,818.515"/>
<path d="M1974.05,599.192 L1974.05,818.515"/>
<path d="M658.114,818.515 L658.114,599.192"/>
<path d="M877.437,599.192 L877.437,818.515"/>
<path d="M877.437,818.515 L1096.76,818.515"/>
<path d="M1096.76,818.515 L1096.76,1037.84"/>
<path d="M1096.76,818.515 L1096.76,599.192"/>
<path d="M0.143635,1037.84 L0.143635,818.515 L0.143635,599.192 L0.143635,379.868 L0.143635,160.545 L219.467,160.545 L438.79,160.545"/>
<path d="M2193.38,379.868 L2193.38,599.192 L2193.38,818.515"/>

</g>

</svg>
