<svg width="499" height="499" xmlns="http://www.w3.org/2000/svg"
   x="0px"
   y="0px"
   viewBox="0 0 100 125"
   enable-background="new 0 0 100 100"
   style="stroke: #333; fill: #ddd;"
   xml:space="preserve">
     <path
     d="M 233.25977 9.9804688 C 229.73882 9.9804688 227.07636 10.993891 225.33984 13.005859 C 223.27199 15.401059 223.3693 18.288033 223.45312 19.154297 L 223.45312 51.273438 C 223.45312 51.652677 223.54752 51.998914 223.69922 52.322266 C 223.74313 52.418074 223.81521 52.490301 223.87109 52.578125 C 224.00682 52.789701 224.15409 52.990625 224.3457 53.154297 C 224.38562 53.190225 224.40149 53.237595 224.44141 53.269531 C 224.44595 53.272775 224.52938 53.33873 224.66602 53.464844 L 274.31445 53.482422 C 274.45143 53.357245 274.54085 53.286109 274.55859 53.273438 C 274.60251 53.241502 274.62236 53.190225 274.6543 53.154297 C 274.84591 52.990625 274.98537 52.793607 275.12109 52.582031 C 275.17698 52.490215 275.24906 52.414167 275.29297 52.318359 C 275.44866 51.995007 275.53906 51.652677 275.53906 51.273438 L 275.53906 19.154297 C 275.62289 18.288033 275.72029 15.401059 273.64844 13.005859 C 271.92389 10.993891 269.26126 9.9804687 265.73633 9.9804688 L 233.25977 9.9804688 z M 225.0332 53.830078 L 273.87695 53.830078 L 225.0332 53.830078 z "
     transform="matrix(0.250501,0,0,0.250501,-12.5,0)"
     id="cap" />
     <path
     d="M 224.66602 53.464844 C 225.36989 54.114508 227.48437 56.350914 227.48438 59.720703 C 227.48438 61.417303 226.27371 65.892355 224.98828 70.630859 C 222.64099 79.313459 219.41992 91.198109 219.41992 100.61523 C 219.41992 108.79318 221.20805 117.77205 222.35938 122.41797 C 222.50807 122.95004 222.65138 123.43623 222.78516 123.875 C 221.09255 124.76122 219.91992 126.51478 219.91992 128.55469 C 219.91992 129.25728 220.06296 129.92039 220.31445 130.53516 C 220.31046 130.54314 220.30673 130.5507 220.30273 130.55469 C 217.28877 139.74028 197.45238 150.15464 190.03125 153.41211 C 190.01927 153.41211 190.00798 153.42383 190 153.42383 C 189.73254 153.5396 189.50445 153.71268 189.29688 153.9043 C 189.24099 153.96018 189.19651 154.0202 189.14062 154.08008 C 189.00091 154.24774 188.87706 154.41767 188.78125 154.61328 C 188.74133 154.69312 188.70576 154.76586 188.67383 154.8457 C 188.57004 155.12514 188.49805 155.41332 188.49805 155.7207 L 188.49805 175.30469 C 188.49805 178.6939 189.70298 180.58165 190.80078 181.59961 L 190.80078 353.15234 C 189.92653 353.80703 189.2601 354.83677 188.88086 356.16211 C 188.5096 357.47149 188.49805 358.72951 188.49805 358.86523 L 188.49805 371.14844 C 188.49805 383.21625 193.65935 388.30592 193.87891 388.52148 C 194.34597 388.9606 194.96853 389.2168 195.61523 389.2168 L 303.39258 389.2168 C 304.03928 389.2168 304.65394 388.9646 305.125 388.52148 C 305.34855 388.30592 310.50977 383.22025 310.50977 371.14844 L 310.50977 358.86523 C 310.50977 358.72951 310.50212 357.47149 310.13086 356.16211 C 309.75162 354.83677 309.08119 353.80703 308.21094 353.15234 L 308.21094 181.60742 L 308.20703 181.60742 C 309.30084 180.59345 310.50586 178.70171 310.50586 175.3125 L 310.50586 155.72852 C 310.50586 155.42113 310.43387 155.13287 310.33008 154.85742 C 310.30213 154.77359 310.26249 154.70289 310.22656 154.62305 C 310.13075 154.43143 310.00707 154.25547 309.85938 154.0918 C 309.80748 154.02792 309.76691 153.968 309.70703 153.91211 C 309.50344 153.72049 309.27528 153.54741 309.00781 153.43164 C 308.99584 153.43164 308.98854 153.41992 308.97656 153.41992 C 301.54745 150.16644 281.72303 139.76007 278.70508 130.5625 C 278.70508 130.55851 278.68945 130.54696 278.68945 130.54297 C 278.93696 129.9282 279.08398 129.26509 279.08398 128.5625 C 279.08398 126.52259 277.91127 124.7709 276.22266 123.88867 C 276.33524 123.51839 276.45484 123.11265 276.57812 122.67578 C 277.5454 118.89347 279.07013 111.75456 279.44336 105.22461 C 279.45933 105.09687 279.51953 104.97752 279.51953 104.8418 C 279.51953 104.75796 279.48463 104.69516 279.47266 104.61133 C 279.53653 103.31792 279.58398 101.9884 279.58398 100.61914 C 279.58398 91.202013 276.35893 79.317366 274.01562 70.634766 C 272.73021 65.896262 271.51172 61.421209 271.51172 59.724609 C 271.51172 56.352805 273.58847 54.145891 274.31445 53.482422 L 224.66602 53.464844 z "
     transform="matrix(0.250501,0,0,0.250501,-12.5,0)"
     id="bottle" /></svg>
