<svg xmlns="http://www.w3.org/2000/svg" xmlns:xlink="http://www.w3.org/1999/xlink" version="1.1" x="0px" y="0px" viewBox="0 0 100 125" enable-background="new 0 0 100 100" xml:space="preserve"><path d="M64.706,45.493c0.274-0.254,0.576-0.728,0.576-1.577V39.01c0-0.077-0.018-0.149-0.044-0.218  c-0.007-0.021-0.017-0.039-0.026-0.059c-0.024-0.048-0.055-0.092-0.092-0.133c-0.013-0.016-0.023-0.031-0.038-0.045  c-0.051-0.048-0.108-0.091-0.175-0.12c-0.003,0-0.005-0.003-0.008-0.003l0,0c-1.861-0.815-6.827-3.422-7.583-5.726  c0-0.001-0.004-0.004-0.004-0.005c0.062-0.154,0.099-0.32,0.099-0.496c0-0.511-0.294-0.95-0.717-1.171  c0.27-0.888,0.686-2.558,0.807-4.675c0.004-0.032,0.019-0.062,0.019-0.096c0-0.021-0.009-0.037-0.012-0.058  c0.016-0.324,0.028-0.657,0.028-1c0-2.359-0.808-5.336-1.395-7.511c-0.322-1.187-0.627-2.308-0.627-2.733  c0-1.004,0.735-1.596,0.763-1.616c0.011-0.008,0.016-0.021,0.024-0.03c0.048-0.041,0.083-0.09,0.117-0.143  c0.014-0.023,0.032-0.042,0.043-0.066c0.039-0.081,0.062-0.167,0.062-0.262V4.798c0.021-0.217,0.045-0.94-0.474-1.54  C55.617,2.754,54.95,2.5,54.067,2.5h-8.135c-0.882,0-1.549,0.254-1.984,0.758c-0.518,0.6-0.494,1.323-0.473,1.54v8.046  c0,0.095,0.024,0.182,0.062,0.263c0.011,0.024,0.029,0.042,0.043,0.064c0.034,0.053,0.071,0.103,0.119,0.144  c0.01,0.009,0.014,0.021,0.024,0.029c0.007,0.005,0.762,0.608,0.762,1.616c0,0.425-0.303,1.546-0.625,2.733  c-0.588,2.175-1.395,5.152-1.395,7.511c0,2.66,0.525,4.784,0.843,5.827c-0.424,0.222-0.718,0.661-0.718,1.172  c0,0.176,0.036,0.342,0.099,0.496c-0.001,0.002-0.002,0.004-0.003,0.005c-0.755,2.301-5.724,4.91-7.583,5.726l0,0  c-0.003,0-0.006,0.003-0.008,0.003c-0.067,0.029-0.124,0.072-0.176,0.12c-0.014,0.014-0.025,0.029-0.039,0.044  c-0.035,0.042-0.066,0.085-0.09,0.134c-0.01,0.02-0.019,0.038-0.027,0.058c-0.026,0.07-0.044,0.142-0.044,0.219v4.906  c0,0.849,0.302,1.322,0.577,1.577v42.974c-0.219,0.164-0.386,0.422-0.481,0.754c-0.093,0.328-0.096,0.643-0.096,0.677v3.077  c0,3.023,1.293,4.298,1.348,4.352c0.117,0.11,0.273,0.174,0.435,0.174H63.5c0.162,0,0.316-0.063,0.434-0.174  c0.056-0.054,1.349-1.328,1.349-4.352v-3.077c0-0.034-0.002-0.349-0.095-0.677c-0.095-0.332-0.263-0.59-0.481-0.754V45.493z   M36.552,88.259v-0.687h26.897v0.687H36.552z M64.026,39.638v4.278c0,0.392-0.086,0.56-0.128,0.622H36.125  c-0.058-0.074-0.15-0.242-0.15-0.622v-4.278H64.026z M36.552,47.037v-1.243h26.897v1.243H36.552z M63.449,48.295v38.021H36.552  V48.295H63.449z M43.847,32.204c0-0.039,0.03-0.069,0.068-0.069h12.168c0.04,0,0.07,0.03,0.07,0.069c0,0.038-0.031,0.069-0.07,0.069  H43.916C43.878,32.273,43.847,32.241,43.847,32.204z M44.577,30.877c-0.211-0.662-0.611-2.106-0.778-3.986h12.402  c-0.166,1.88-0.565,3.325-0.777,3.986H44.577z M44.906,4.072c0.232-0.261,0.686-0.315,1.026-0.315h8.135  c0.341,0,0.795,0.055,1.026,0.315c0.218,0.244,0.181,0.6,0.181,0.6v0c-0.004,0.03-0.006,0.061-0.006,0.092v7.452H44.732L44.727,4.68  C44.726,4.677,44.687,4.318,44.906,4.072z M45.073,18.022c0.388-1.434,0.669-2.469,0.669-3.062c0-0.591-0.157-1.089-0.359-1.488  h9.235c-0.201,0.399-0.359,0.897-0.359,1.488c0,0.593,0.28,1.628,0.669,3.062c0.57,2.106,1.351,4.991,1.351,7.183  c0,0.146-0.004,0.287-0.007,0.429H43.729c-0.004-0.142-0.008-0.283-0.008-0.429C43.721,23.013,44.503,20.129,45.073,18.022z   M43.705,33.508c0.069,0.011,0.139,0.021,0.21,0.021h12.168c0.072,0,0.142-0.01,0.212-0.021c0.911,1.936,3.656,3.74,5.708,4.874  H37.998C40.049,37.249,42.792,35.444,43.705,33.508z M64.026,92.975c0,1.864-0.559,2.888-0.824,3.269H36.799  c-0.268-0.386-0.825-1.408-0.825-3.269V89.9c0.001-0.13,0.03-0.291,0.064-0.386h27.923c0.035,0.095,0.063,0.256,0.064,0.383V92.975z  "/><text x="0" y="115" fill="#000000" font-size="5px" font-weight="bold" font-family="'Helvetica Neue', Helvetica, Arial-Unicode, Arial, Sans-serif">Created by Gabriela Muñiz</text><text x="0" y="120" fill="#000000" font-size="5px" font-weight="bold" font-family="'Helvetica Neue', Helvetica, Arial-Unicode, Arial, Sans-serif">from the Noun Project</text></svg>
